Coordinates
version=1
nRows=13
nColumns=38
inDegrees=no

Units are S.I. units (second, meters, Newtons, ...)
If the header above contains a line with 'inDegrees', this indicates whether rotational values are in degrees (yes) or radians (no).

endheader
time	pelvis_tilt	pelvis_list	pelvis_rotation	pelvis_tx	pelvis_ty	pelvis_tz	hip_flexion_r	hip_adduction_r	hip_rotation_r	knee_angle_r	ankle_angle_r	subtalar_angle_r	mtp_angle_r	hip_flexion_l	hip_adduction_l	hip_rotation_l	knee_angle_l	ankle_angle_l	subtalar_angle_l	mtp_angle_l	lumbar_extension	lumbar_bending	lumbar_rotation	arm_flex_r	arm_add_r	arm_rot_r	elbow_flex_r	pro_sup_r	wrist_flex_r	wrist_dev_r	arm_flex_l	arm_add_l	arm_rot_l	elbow_flex_l	pro_sup_l	wrist_flex_l	wrist_dev_l
0.99	0.0713848	1.36759	-1.54059	0.665496	0.3786	0.934308	-0.405267	0.00147859	-0.0630723	0.639272	-0.320926	0	0	0.0906285	0.0506453	0.0102799	0.329446	-0.22387	0	0	-0.428525	0.0761127	-0.0120132	-0.129358	-0.597309	0.841298	0.848079	0.498988	0	0	-0.233937	-0.230246	0.0343449	0.690655	1.45519	0	0
1	0.0894355	1.36488	-1.55746	0.667839	0.367999	0.935648	-0.385684	-0.0123574	-0.0716789	0.694492	-0.363326	0	0	0.0770555	0.0556633	0.00913653	0.335244	-0.217005	0	0	-0.430278	0.0725435	-0.0143895	-0.135628	-0.59937	0.832736	0.852384	0.506455	0	0	-0.239179	-0.231193	0.0357238	0.69713	1.45901	0	0
1.01	0.112684	1.36314	-1.57984	0.670204	0.357579	0.936734	-0.362018	-0.0281265	-0.0805792	0.752157	-0.411126	0	0	0.0642639	0.062043	0.00563361	0.339097	-0.210485	0	0	-0.431516	0.0682371	-0.0178321	-0.141483	-0.602135	0.823458	0.85828	0.512647	0	0	-0.244516	-0.231139	0.0344432	0.704785	1.45863	0	0
1.02	0.139798	1.36173	-1.60553	0.672626	0.347302	0.937563	-0.336137	-0.0443699	-0.0882024	0.809761	-0.462815	0	0	0.0512923	0.0694695	0.000889201	0.339454	-0.205495	0	0	-0.432116	0.0631912	-0.0224094	-0.146617	-0.604596	0.815198	0.863888	0.518344	0	0	-0.250097	-0.231896	0.0344371	0.712692	1.45854	0	0
1.03	0.163449	1.35911	-1.62694	0.675137	0.337361	0.938288	-0.310643	-0.059157	-0.0945484	0.865497	-0.509321	0	0	0.0368141	0.0763866	-0.00174658	0.3391	-0.198835	0	0	-0.434386	0.0590789	-0.0275253	-0.151038	-0.608071	0.808095	0.870797	0.523688	0	0	-0.255584	-0.233055	0.0349232	0.721696	1.45698	0	0
1.04	0.18285	1.35603	-1.64462	0.677544	0.327647	0.938961	-0.284903	-0.0723556	-0.0975921	0.92022	-0.544914	0	0	0.0212043	0.0823841	-0.00385142	0.338011	-0.191253	0	0	-0.437557	0.0555865	-0.0321094	-0.15444	-0.612251	0.80256	0.878132	0.5274	0	0	-0.260713	-0.23422	0.0353007	0.730724	1.45405	0	0
1.05	0.198318	1.353	-1.65873	0.679754	0.318125	0.939638	-0.258435	-0.0841908	-0.0988521	0.973611	-0.577432	0	0	0.00497832	0.0873203	-0.00554974	0.335988	-0.182917	0	0	-0.441175	0.0527934	-0.0366831	-0.156375	-0.616435	0.798654	0.885234	0.531116	0	0	-0.265184	-0.235307	0.0360232	0.739877	1.44925	0	0
1.06	0.207459	1.34906	-1.66615	0.681827	0.308986	0.940499	-0.232865	-0.0945737	-0.101573	1.02323	-0.605118	0	0	-0.0127275	0.0906811	-0.00659402	0.331924	-0.176103	0	0	-0.446315	0.0514952	-0.0411232	-0.156599	-0.620226	0.796031	0.891318	0.53355	0	0	-0.2682	-0.236623	0.0376412	0.747973	1.44434	0	0
1.07	0.209418	1.34429	-1.66764	0.683673	0.300236	0.941589	-0.207538	-0.104194	-0.106561	1.06928	-0.631343	0	0	-0.0320855	0.0919194	-0.00847551	0.32587	-0.169987	0	0	-0.453087	0.0511251	-0.0439587	-0.154854	-0.62352	0.794853	0.895842	0.53472	0	0	-0.269767	-0.238146	0.0402785	0.754496	1.44039	0	0
1.08	0.206546	1.33969	-1.66474	0.685318	0.291675	0.942835	-0.181174	-0.111544	-0.109927	1.11358	-0.653153	0	0	-0.0520154	0.0911338	-0.0115941	0.317614	-0.164759	0	0	-0.459981	0.0517174	-0.0459927	-0.151633	-0.62589	0.795162	0.898371	0.535292	0	0	-0.269471	-0.23882	0.0427038	0.758507	1.43478	0	0
1.09	0.200125	1.3359	-1.65825	0.686885	0.283264	0.944192	-0.153958	-0.117034	-0.112662	1.15527	-0.659232	0	0	-0.071658	0.0886907	-0.016431	0.306926	-0.162268	0	0	-0.465765	0.0533012	-0.0474185	-0.147368	-0.627399	0.797079	0.898717	0.53538	0	0	-0.267326	-0.238605	0.0451638	0.759092	1.4293	0	0
1.1	0.190198	1.33296	-1.64883	0.688456	0.275026	0.945602	-0.126054	-0.12117	-0.114526	1.19379	-0.64417	0	0	-0.0903556	0.08523	-0.0230367	0.295356	-0.163003	0	0	-0.470353	0.0558785	-0.0475682	-0.142372	-0.629021	0.800724	0.897781	0.534608	0	0	-0.263528	-0.237975	0.0492052	0.757126	1.42639	0	0
1.11	0.178698	1.33146	-1.63774	0.690044	0.266909	0.946944	-0.0968832	-0.123434	-0.113955	1.22923	-0.613663	0	0	-0.107188	0.081435	-0.0291038	0.284118	-0.16584	0	0	-0.473239	0.0596239	-0.0474869	-0.136913	-0.630784	0.805063	0.896235	0.532318	0	0	-0.258054	-0.235921	0.0523174	0.752747	1.42277	0	0
